PathFileType	4	(X/Y/Z)	C:/Users/beibeiliu/ov580/test_trc/User3\sequence.23_training_dense_right.trc
DataRate	CameraRate	NumFrames	NumMarkers	Units	OrigDataRate	OrigDataStartFrame	OrigNumFrames
120	120	22	19	mm	120	31	92
Frame#	Time	ThumbCMC			ThumbMCP			ThumbIP			ThumbTip			IndexMCP			IndexPIP			IndexTip			MiddleMCP			MiddlePIP			MiddleTip			RingMCP			RingPIP			RingTip			PinkyMCP			PinkyPIP			PinkyTip			BackHand1			BackHand2			BackHand3	
		X0	Y0	Z0	X1	Y1	Z1	X2	Y2	Z2	X3	Y3	Z3	X4	Y4	Z4	X5	Y5	Z5	X6	Y6	Z6	X7	Y7	Z7	X8	Y8	Z8	X9	Y9	Z9	X10	Y10	Z10	X11	Y11	Z11	X12	Y12	Z12	X13	Y13	Z13	X14	Y14	Z14	X15	Y15	Z15	X16	Y16	Z16	X17	Y17	Z17	X18	Y18	Z18	
30	0.25	248.792	54.9705	25.6231	247.798	54.4569	-7.39954	249.937	49.0699	-35.3644	251.413	43.1726	-55.7323	293.369	37.4695	-31.0364	296.29	36.3373	-56.6924	300.197	39.3212	-79.3237	282.781	5.62744	-36.1337	278.593	4.42662	-65.0027	269.424	5.03243	-94.9456	252.092	-0.780165	-29.215	227.187	12.3288	-39.9971	200.379	25.9678	-22.5275	243.602	-10.5602	-18.643	221.846	4.07584	-25.5106	203.895	17.3374	-12.1726	269.963	-4.64098	26.4113	257.598	0.930143	53.9621	273.629	31.4943	39.6992	
31	0.258333	228.784	67.0761	23.6767	231.279	66.3548	-12.647	237.057	62.7009	-39.0373	241.418	59.1958	-62.1253	279.413	72.2848	-31.2975	280.857	78.4766	-59.2227	284.015	79.5216	-83.8391	287.22	43.0954	-38.8016	284.303	38.9356	-64.7709	277.321	37.5187	-98.63	262.065	23.3181	-31.425	234.092	17.5707	-40.1975	207.898	21.1268	-26.9107	260.946	6.38037	-20.1003	235.661	9.13399	-26.5755	212.92	16.4783	-10.9144	278.936	30.6818	23.7666	265	29.6119	54.8665	263.461	58.1706	36.6687	
32	0.266667	200.787	64.1734	21.5777	204.572	65.3508	-16.6424	212.234	66.3498	-45.6051	220.343	62.883	-65.9708	243.265	93.4895	-35.3684	238.919	100.266	-65.0062	240.133	102.293	-85.9307	264.205	72.192	-39.9354	262.701	69.0191	-70.5317	262.626	59.0044	-100.679	255.852	41.8496	-33.6993	232.869	23.8988	-43.3573	208.908	10.7966	-22.8691	262.525	28.4744	-23.0932	239.318	11.9954	-27.6165	216.283	12.7796	-6.32056	268.455	56.0831	21.4219	257.818	45.8014	48.2848	240.08	74.3962	29.8001	
33	0.275	183.114	50.3165	17.0217	179.593	50.4371	-16.1963	186.452	53.2156	-46.4992	195.395	55.7739	-70.3742	203.317	93.065	-45.3474	200.697	95.508	-68.0725	202.352	98.1298	-92.5558	236.817	78.4734	-45.7367	235.108	75.4841	-75.5853	234.578	67.7506	-104.822	239.212	45.9131	-40.4262	226.515	20.7377	-44.8437	212.623	3.40174	-23.1157	249.923	37.7386	-29.653	234.879	15.4418	-29.8312	216.79	4.6462	-4.66831	245.341	71.8187	15.111	239.018	60.0639	41.2116	208.011	74.5632	26.4776	
34	0.283333	172.503	40.0692	12.1261	167.637	37.4857	-21.7644	175.064	37.9432	-46.5485	180.492	39.1943	-73.6032	185.572	78.4732	-51.5192	175.15	79.4215	-78.8176	175.216	80.5383	-99.5642	211.959	73.4008	-57.7099	215.431	66.186	-81.0628	219.187	53.819	-113.007	224.527	44.3439	-43.132	220.891	16.1638	-45.1139	205.833	-4.13726	-19.3814	238.484	38.1523	-31.9897	229.534	12.6647	-28.8185	214.45	2.71214	-6.73219	227.381	70.9246	9.20059	222.176	61.6215	38.5227	190.911	69.9052	17.4872	
35	0.291667	162.467	30.2906	13.6665	160.038	23.572	-23.631	164.448	19.3541	-50.8672	175.53	18.5507	-70.9032	167.503	60.5282	-60.7266	167.439	56.2285	-82.0332	161.063	53.7427	-105.904	202.821	58.7933	-64.3147	207.075	48.2299	-87.2393	214.532	33.2525	-113.217	218.856	34.5215	-43.2957	212.529	2.18785	-41.9014	205.428	-13.2002	-12.1006	229.236	29.9602	-34.5127	224.037	8.22993	-28.9911	210.826	-2.45562	-3.22859	209.686	70.5061	1.9468	208.608	63.4324	35.6106	179.569	64.934	12.7712	
36	0.3	153.606	23.8711	10.5915	153.447	8.69523	-16.9252	159.997	1.98084	-50.3221	167.954	-4.79283	-67.9438	162.469	41.6797	-63.1877	155.237	32.0056	-84.6425	156.542	24.7899	-107.335	191.463	40.1722	-66.357	199.462	26.6588	-85.9769	204.853	6.97407	-113.952	209.326	21.2244	-42.7364	207.629	-11.0224	-34.6038	197.182	-20.3992	-5.72986	225.059	21.8244	-30.4105	216.869	-7.32119	-20.9059	204.066	-12.132	-1.51477	199.802	60.9995	-3.16991	196.431	62.6576	25.4491	167.606	57.248	10.4232	
37	0.308333	146.357	15.0353	17.9274	144.412	-6.06484	-10.4532	151.91	-19.0478	-41.9172	161.082	-28.3394	-58.6027	153.542	19.2089	-59.5956	149.791	6.96425	-80.8172	142.598	-7.14899	-102.497	185.843	19.8404	-64.1405	193.965	2.11903	-82.5445	200.485	-22.1899	-104.318	202.215	4.89842	-39.7626	199.561	-26.3005	-25.7538	187.885	-30.0978	1.66088	217.576	4.72633	-26.4828	208.46	-19.5571	-13.5435	191.448	-19.6777	8.91608	192.48	52.4606	-5.43325	191.606	58.3825	21.8588	159.596	48.0757	2.37172	
38	0.316667	136.007	10.3081	24.2311	134.493	-14.5785	-0.331189	138.97	-32.6051	-28.158	145.969	-46.0218	-41.613	140.571	-1.26748	-56.0346	132.998	-16.7426	-72.7145	129.744	-33.5613	-91.5566	175.654	-0.367732	-57.0084	175.878	-22.2788	-73.5769	179.618	-51.6719	-91.7301	188.108	-15.6222	-33.6743	189.149	-39.5982	-18.3747	174.932	-39.1546	12.6258	205.304	-8.76323	-21.271	199.673	-30.9328	-6.80812	181.679	-28.5896	15.5769	183.713	38.6111	-6.02225	181.363	49.7175	19.5001	151.735	41.1945	3.57585	
39	0.325	123.964	10.4283	30.2789	123.157	-16.2143	5.42793	124.791	-35.5303	-15.6469	126.264	-52.5562	-27.5965	125.708	-6.96504	-42.3781	115.401	-24.4264	-59.2536	108.049	-43.1567	-76.8274	155.635	-16.8442	-51.3145	157.062	-42.4381	-63.4401	156.635	-72.9655	-73.4809	174.789	-29.8072	-24.4734	167.87	-50.7493	-5.03509	157.628	-41.0987	25.7342	187.38	-23.6047	-15.4985	179.416	-42.7463	5.00331	165.595	-30.4422	28.6614	179.698	28.3446	-5.72769	180.911	43.2593	22.8779	144.481	37.1089	5.71444	
40	0.333333	120.523	20.1022	31.8742	112.115	-6.80627	15.7266	104.715	-28.5902	-3.71351	103.901	-45.4798	-18.3941	114.757	-3.50892	-37.5057	103.909	-21.5121	-51.9974	90.4168	-40.6289	-68.7556	144.654	-21.8561	-41.282	133.967	-44.6817	-49.1652	124.286	-77.1453	-57.2362	159.374	-32.6288	-14.4032	145.529	-51.7431	6.99505	141.732	-38.9845	36.7922	174.102	-35.354	-4.16331	159.503	-46.3448	18.1151	151.75	-29.2687	39.8606	174.484	20.2005	-3.00235	182.371	37.9187	22.6253	148.531	36.5976	9.99443	
41	0.341667	125.548	33.5362	34.9555	105.755	10.8133	21.7102	96.4804	-11.2219	0.521935	85.8898	-28.8399	-12.5855	110.319	7.3475	-33.7053	94.4742	-7.96268	-46.719	78.4256	-19.806	-59.3665	130.146	-20.3154	-35.7177	117.582	-41.9577	-40.8384	98.3087	-68.9898	-45.5537	140.781	-34.0076	-5.07084	123.613	-43.0921	14.8644	124.475	-23.7851	46.5374	158.067	-36.8279	5.5526	135.797	-37.6125	27.3514	136.604	-20.8792	47.4645	177.807	14.9751	2.63599	185.754	27.5871	25.737	153.286	41.8781	12.2999	
42	0.35	135.683	48.848	33.9492	109.727	34.3235	21.6284	90.7586	15.943	0.877747	76.2722	2.19752	-11.7791	113.196	20.6317	-34.7079	95.5924	14.5946	-44.8355	75.8512	7.32222	-58.5255	123.672	-10.2126	-31.2327	105.402	-22.4385	-36.5772	76.7095	-39.3843	-43.0895	125.306	-17.651	-2.13441	104.157	-22.1349	20.3996	105.185	-4.29321	45.6634	138.525	-30.2837	12.3142	118.807	-25.6094	31.3601	121.515	-2.14131	51.6375	177.032	10.6744	7.31463	189.809	20.0885	29.8624	163.516	43.2221	11.2952	
43	0.358333	150.255	63.8005	31.8826	123.056	56.1074	16.7867	100.902	46.1004	-1.76482	85.061	36.3508	-13.5667	127.775	38.6512	-34.7777	103.233	42.5693	-53.1195	85.9625	41.2484	-65.2824	125.064	10.0077	-30.2222	98.1435	5.83538	-42.2174	69.3816	-0.386341	-49.2835	118.634	-0.252058	-4.19489	93.6436	7.9107	17.8005	100.409	20.1606	44.8566	121.393	-14.38	12.0414	105.696	1.04653	27.6937	114.6	19.2386	48.5503	174.995	8.5645	10.1085	190.441	13.8512	32.509	177.959	40.8642	15.8755	
44	0.366667	167.635	63.625	27.394	143.493	70.5746	11.4496	120.111	67.5947	-8.41303	101.27	63.402	-22.4437	142.277	51.3392	-43.4943	126.833	59.5075	-57.9118	106.35	60.5763	-75.6022	128.238	24.3449	-36.6003	103.028	24.9949	-48.2211	74.3612	31.3639	-59.7118	114.555	19.4998	-7.33473	95.1831	36.1418	10.3851	103.618	47.1589	37.5149	117.872	7.95619	6.86298	103.603	25.7437	24.1404	116.579	42.4885	40.3285	171.284	4.56077	6.87005	187.595	7.51812	38.1929	188.177	37.8676	15.0548	
45	0.375	183.772	59.7814	24.5028	162.525	71.8717	1.89761	141.877	75.2269	-20.6544	123.597	75.4482	-35.814	161.818	46.7283	-44.6174	149.99	61.7876	-64.9843	133.965	69.4869	-86.5915	140.739	28.5379	-42.3895	120.823	36.8346	-56.5084	91.4912	47.0486	-71.0697	126.908	27.782	-14.7662	106.864	51.3081	-0.19989	114.95	64.7153	27.126	116.779	17.6542	1.30518	110.468	38.3656	11.4	121.394	53.1421	37.1792	172.548	3.55964	8.12883	185.738	-2.30058	38.936	196.585	29.9067	10.6035	
46	0.383333	201.068	46.854	19.5658	183.515	57.191	-3.96287	163.971	62.3513	-31.6421	150.291	63.6787	-42.8885	183.285	32.2392	-50.1268	173.138	40.7039	-72.5439	161.242	49.9355	-97.4037	155.706	14.1855	-46.5908	138.383	25.4951	-66.5263	115.503	38.7887	-84.032	140.073	20.4488	-22.4048	124.206	48.8514	-12.7107	132.221	64.3142	14.229	125.176	14.0422	-6.36721	121.981	39.8372	6.44283	137.069	51.5204	23.2677	172.253	-12.2425	6.43313	185.261	-15.0329	35.5995	203.724	8.40716	12.1941	
47	0.391667	213.511	21.4139	22.7335	201.944	35.6079	-8.92116	186.448	39.1452	-34.9651	170.165	36.1949	-50.8419	202.079	3.26249	-49.4914	193.286	8.46124	-76.0356	190.261	18.6848	-98.773	168.775	-12.6916	-48.6977	155.274	-1.3142	-72.8412	138.653	13.2738	-95.7677	153.08	-1.19497	-25.074	138.119	29.6531	-18.9115	146.055	47.8652	2.95573	140.247	-4.1323	-10.5556	138.959	21.708	-5.52819	150.154	36.5504	14.9625	182.555	-34.611	11.9596	194.156	-32.0711	42.4205	215.486	-14.4082	18.5642	
48	0.4	222.219	1.15274	23.6616	211.062	11.9013	-6.4201	194.955	10.394	-35.4812	182.665	10.9847	-49.6769	210.162	-27.2693	-50.5656	210.007	-19.7962	-70.0063	201.584	-17.1608	-94.135	179.542	-41.1313	-44.6411	169.837	-32.2285	-68.229	153.02	-20.9224	-94.0921	163.594	-26.3536	-24.8674	149.193	-0.186212	-23.7584	153.685	25.6737	2.91165	149.686	-31.3637	-7.33898	142.435	-3.83096	-3.65501	157.247	12.5463	13.1402	190.756	-56.0599	20.1724	198.405	-54.021	47.3756	223.224	-37.0686	23.4775	
49	0.408333	224.801	-18.5457	27.0281	213.214	-12.6835	-6.32443	200.691	-11.2844	-30.4842	187.086	-16.1665	-49.0787	217.775	-50.2561	-40.4741	214.222	-45.4955	-68.953	209.575	-43.4767	-93.0364	193.775	-64.2626	-35.9998	174.531	-60.8714	-62.563	162.057	-52.0288	-86.3051	167.716	-51.7677	-18.1962	156.793	-25.4109	-22.492	155.901	2.37209	0.160411	160.349	-56.9185	-3.28147	148.887	-29.9688	-1.46676	159.43	-10.3625	13.165	199.565	-76.3642	25.5295	207.185	-67.7739	53.8406	230.598	-55.2696	30.9786	
50	0.416667	231.423	-24.2566	26.1345	218.03	-20.3739	-3.92993	205.847	-26.4611	-28.318	194.4	-33.7067	-49.3872	233.07	-60.724	-38.8807	229.285	-57.6685	-63.4329	224.343	-57.9546	-86.2763	206.553	-80.4951	-36.2793	194.689	-77.5157	-56.6355	173.806	-77.054	-81.1761	181.217	-72.3616	-14.8462	164.524	-49.3636	-19.6666	157.796	-21.0099	0.799168	172.797	-76.1888	-0.637668	162.009	-51.491	-4.16294	163.273	-31.411	16.7956	217.498	-86.8292	27.015	222.132	-78.3874	57.7522	240.46	-60.833	36.2196	
51	0.425	232.766	-15.6914	29.2829	220.993	-22.8061	-3.88294	210.437	-31.3047	-27.2517	202.698	-40.5818	-48.5646	247.208	-54.5627	-34.8641	241.577	-52.6818	-59.1486	239.259	-50.6956	-86.2489	230.847	-79.3594	-30.9672	217.94	-80.7801	-55.5051	199.936	-82.0504	-85.5951	203.235	-81.458	-13.5907	178.278	-59.9626	-21.0217	163.454	-39.4273	-0.596523	194.541	-86.1473	-1.79326	175.378	-70.0718	-1.51746	173.979	-42.2873	15.5234	240.315	-82.8419	28.5315	238.866	-74.7254	61.423	255.906	-49.0278	35.9855	
